<svg xmlns="http://www.w3.org/2000/svg" version="1.1" xmlns:xlink="http://www.w3.org/1999/xlink" xmlns:svgjs="http://svgjs.com/svgjs" width="512" height="512" x="0" y="0" viewBox="0 0 511.999 511.999" style="enable-background:new 0 0 512 512" xml:space="preserve" class=""><g>
<g>
	<g>
		<path d="M474.955,180.435h-9.076V37.745l-24.707,19.758c-65.908,52.707-133.799,84.393-179.146,101.694
			c-27.97,10.67-51.04,17.334-65.844,21.118v-12.046H40.558v27.038H0v112.206h40.558v27.038h33.879l30.419,139.705h94.488
			l-30.419-139.705h27.256v-12.046c14.804,3.784,37.874,10.446,65.844,21.118c45.347,17.3,113.238,48.988,179.146,101.694
			l24.707,19.758V322.381h9.076c20.426,0,37.045-16.618,37.045-37.045v-67.858C512,197.053,495.381,180.435,474.955,180.435z
			 M40.558,277.094H30.417v-51.372h10.141V277.094z M129.364,443.836l-23.796-109.288h32.228l23.795,109.288H129.364z
			 M165.764,303.413v0.718h-3.463H70.975V198.685h94.789V303.413z M435.461,180.435v141.947v80.378
			c-61.138-44.255-121.463-71.924-163.397-87.865c-34.17-12.989-61.103-20.238-75.883-23.741v-79.491
			c14.78-3.503,41.713-10.751,75.883-23.741c41.934-15.941,102.258-43.61,163.397-87.866V180.435z M481.583,285.337
			c0,3.654-2.973,6.628-6.628,6.628h-9.076v-81.112h9.076c3.654,0,6.628,2.973,6.628,6.627V285.337z" fill="#00adb5" data-original="#000000" class=""></path>
	</g>
</g>
<g>
</g>
<g>
</g>
<g>
</g>
<g>
</g>
<g>
</g>
<g>
</g>
<g>
</g>
<g>
</g>
<g>
</g>
<g>
</g>
<g>
</g>
<g>
</g>
<g>
</g>
<g>
</g>
<g>
</g>
</g></svg>