<svg xmlns="http://www.w3.org/2000/svg" version="1.1" xmlns:xlink="http://www.w3.org/1999/xlink" xmlns:svgjs="http://svgjs.com/svgjs" width="512" height="512" x="0" y="0" viewBox="0 0 682.66669 682.66669" style="enable-background:new 0 0 512 512" xml:space="preserve" class=""><g><defs id="defs1003"><clipPath clipPathUnits="userSpaceOnUse" id="clipPath1013"><path d="M 0,512 H 512 V 0 H 0 Z" id="path1011" fill="#35477d" data-original="#000000"></path></clipPath></defs><g id="g1005" transform="matrix(1.3333333,0,0,-1.3333333,0,682.66667)"><g id="g1007"><g id="g1009" clip-path="url(#clipPath1013)"><g id="g1015" transform="translate(283.0645,7.5596)"><path d="m 0,0 h -243.533 c -11.495,0 -20.814,9.319 -20.814,20.814 v 455.253 c 0,11.495 9.319,20.814 20.814,20.814 h 432.931 c 11.497,0 20.815,-9.319 20.815,-20.814 V 20.814 C 210.213,9.319 200.895,0 189.398,0 H 35" style="stroke-width:15;stroke-linecap:round;stroke-linejoin:round;stroke-miterlimit:10;stroke-dasharray:none;stroke-opacity:1" id="path1017" fill="none" stroke="#35477d" stroke-width="15" stroke-linecap="round" stroke-linejoin="round" stroke-miterlimit="10" stroke-dasharray="none" stroke-opacity="" data-original="#000000" class=""></path></g><g id="g1019" transform="translate(429.0254,53.04)"><path d="m 0,0 h -346.056 c -11.496,0 -20.814,9.319 -20.814,20.814 v 364.291 c 0,11.496 9.318,20.815 20.814,20.815 H 0 c 11.496,0 20.814,-9.319 20.814,-20.815 V 20.814 C 20.814,9.319 11.496,0 0,0 Z" style="stroke-width:15;stroke-linecap:round;stroke-linejoin:round;stroke-miterlimit:10;stroke-dasharray:none;stroke-opacity:1" id="path1021" fill="none" stroke="#35477d" stroke-width="15" stroke-linecap="round" stroke-linejoin="round" stroke-miterlimit="10" stroke-dasharray="none" stroke-opacity="" data-original="#000000" class=""></path></g><g id="g1023" transform="translate(188.3887,264.1729)"><path d="m 0,0 c -7.784,0 -22.004,-0.065 -33.893,-0.128 -0.062,12.256 -0.129,27.062 -0.129,35.018 0,6.722 -0.04,22.099 -0.076,34.889 H 0 C 19.495,69.779 35.966,53.802 35.966,34.89 35.966,15.978 19.495,0 0,0 Z m -74.253,-25.052 v -79.796 c 0,-11.072 8.976,-20.048 20.048,-20.048 11.072,0 20.048,8.976 20.048,20.048 v 64.622 c 11.928,0.064 26.341,0.131 34.157,0.131 19.995,0 38.949,7.733 53.37,21.774 14.633,14.247 22.692,33.144 22.692,53.211 0,20.066 -8.059,38.963 -22.692,53.21 C 38.949,102.142 19.995,109.875 0,109.875 h -54.205 c -5.449,0 -10.366,-2.062 -14.199,-5.895 -3.865,-3.878 -5.849,-8.67 -5.849,-14.153 V 10.031" style="stroke-width:15;stroke-linecap:round;stroke-linejoin:round;stroke-miterlimit:10;stroke-dasharray:none;stroke-opacity:1" id="path1025" fill="none" stroke="#35477d" stroke-width="15" stroke-linecap="round" stroke-linejoin="round" stroke-miterlimit="10" stroke-dasharray="none" stroke-opacity="" data-original="#000000" class=""></path></g><g id="g1027" transform="translate(342.0342,138.1128)"><path d="m 0,0 c -15.784,-1.096 -32.319,3.367 -45.99,10.674 -2.912,1.556 -5.706,3.345 -8.212,5.503 -4.964,4.273 -8.719,10.007 -8.782,16.74 -0.053,5.609 2.332,11.062 6.488,14.829 7.885,7.146 19.608,5.908 27.666,-0.307 7.527,-5.806 15.475,-8.675 24.971,-7.946 5.758,0.442 16.289,1.972 17.559,9.09 0.452,2.534 -4.128,6.184 -10.889,8.678 -3.646,1.345 -7.295,2.682 -10.916,4.091 -13.946,5.425 -28.765,11.854 -39.155,22.999 -10.188,10.928 -12.298,28.325 -7.127,42.149 3.486,9.316 10.984,16.461 19.388,21.459 17.597,10.465 39.953,12.853 59.609,7.82 13.442,-3.443 32.151,-13.93 31.184,-30.01 -0.595,-9.901 -8.157,-18.604 -18.532,-17.975 -5.55,0.337 -10.82,2.888 -15.768,5.216 -8.552,4.025 -19.164,5.4 -27.791,0.298 -1.815,-1.074 -6.189,-3.37 -6.534,-5.762 -0.104,-0.718 0.041,-1.187 0.251,-1.502 C -7.885,104.003 3.902,98.972 16.483,94.331 29.391,89.57 39.174,82.484 45.562,73.271 52.065,63.889 54.563,52.655 52.596,41.638 50.265,28.582 42.099,17.272 31.031,10.135 21.875,4.23 10.858,0.754 0,0 Z" style="stroke-width:15;stroke-linecap:round;stroke-linejoin:round;stroke-miterlimit:10;stroke-dasharray:none;stroke-opacity:1" id="path1029" fill="none" stroke="#35477d" stroke-width="15" stroke-linecap="round" stroke-linejoin="round" stroke-miterlimit="10" stroke-dasharray="none" stroke-opacity="" data-original="#000000" class=""></path></g></g></g></g></g></svg>