<svg xmlns="http://www.w3.org/2000/svg" version="1.1" xmlns:xlink="http://www.w3.org/1999/xlink" xmlns:svgjs="http://svgjs.com/svgjs" width="512" height="512" x="0" y="0" viewBox="0 0 24 24" style="enable-background:new 0 0 512 512" xml:space="preserve" class=""><g><g fill="rgb(0,0,0)"><path d="m12.0001 4.00006c0 .69036.5596 1.25 1.25 1.25h5.5v13.50004h-5.5c-.6904 0-1.25.5596-1.25 1.25 0 .6903.5596 1.25 1.25 1.25h5.75c1.2426 0 2.25-1.0074 2.25-2.25v-14.00004c0-1.24264-1.0074-2.25-2.25-2.25h-5.75c-.6904 0-1.25.55965-1.25 1.25z" fill="#00adb5" data-original="#000000" class=""></path><path d="m9.00007 8.76781 1.98223 1.98219h-7.73225c-.69035 0-1.25.5597-1.25 1.25 0 .6904.55965 1.25 1.25 1.25h7.73225l-1.98227 1.9823c-.48815.4881-.48815 1.2796 0 1.7677.48816.4882 1.27957.4882 1.76777 0l4.1161-4.1161c.2345-.2344.3662-.5524.3662-.8839s-.1317-.6494-.3662-.8839l-4.1161-4.11606c-.4881-.48815-1.27958-.48815-1.76773 0-.48816.48816-.48816 1.27961 0 1.76777z" fill="#00adb5" data-original="#000000" class=""></path></g></g></svg>