<svg xmlns="http://www.w3.org/2000/svg" version="1.1" xmlns:xlink="http://www.w3.org/1999/xlink" xmlns:svgjs="http://svgjs.com/svgjs" width="512" height="512" x="0" y="0" viewBox="0 0 64 64" style="enable-background:new 0 0 512 512" xml:space="preserve" class=""><g><path d="m28 52h-23a5.006 5.006 0 0 1 -5-5v-42a5.006 5.006 0 0 1 5-5h2v2h-2a3 3 0 0 0 -3 3v42a3 3 0 0 0 3 3h23z" fill="#35477d" data-original="#000000" class=""></path><path d="m9 0h2.001v2h-2.001z" fill="#35477d" data-original="#000000" class=""></path><path d="m59 52v-2a3 3 0 0 0 3-3v-42a3 3 0 0 0 -3-3h-46v-2h46a5.006 5.006 0 0 1 5 5v42a5.006 5.006 0 0 1 -5 5z" fill="#35477d" data-original="#000000" class=""></path><path d="m18.438 52h4.123v2h-4.123z" transform="matrix(.243 -.97 .97 .243 -35.89 60.027)" fill="#35477d" data-original="#000000" class=""></path><path d="m28 60h-10a1 1 0 0 1 -1-1v-2a3 3 0 0 1 3-3h8v2h-8a1 1 0 0 0 -1 1v1h9z" fill="#35477d" data-original="#000000" class=""></path><path d="m1 42h27v2h-27z" fill="#35477d" data-original="#000000" class=""></path><path d="m4 46h2v2h-2z" fill="#35477d" data-original="#000000" class=""></path><path d="m8 46h6v2h-6z" fill="#35477d" data-original="#000000" class=""></path><path d="m55 64h-20a5.006 5.006 0 0 1 -5-5v-40a5.006 5.006 0 0 1 5-5h20a5.006 5.006 0 0 1 5 5v40a5.006 5.006 0 0 1 -5 5zm-20-48a3 3 0 0 0 -3 3v40a3 3 0 0 0 3 3h20a3 3 0 0 0 3-3v-40a3 3 0 0 0 -3-3z" fill="#35477d" data-original="#000000" class=""></path><path d="m50 24h-10c-1.874 0-2.659-1.632-2.907-3h-6.093v-2h7a1 1 0 0 1 1 1c0 .017.056 2 1 2h10c.944 0 1-1.983 1-2a1 1 0 0 1 1-1h7v2h-6.093c-.248 1.368-1.033 3-2.907 3z" fill="#35477d" data-original="#000000" class=""></path><path d="m41 18h8v2h-8z" fill="#35477d" data-original="#000000" class=""></path><path d="m41 59h8v2h-8z" fill="#35477d" data-original="#000000" class=""></path><path d="m31 56h28v2h-28z" fill="#35477d" data-original="#000000" class=""></path><path d="m18 28h-4a1 1 0 0 1 -1-1v-1.466a9.941 9.941 0 0 1 -1.619-.672l-1.038 1.038a1 1 0 0 1 -1.414 0l-2.829-2.829a1 1 0 0 1 0-1.414l1.037-1.038a9.941 9.941 0 0 1 -.671-1.619h-1.466a1 1 0 0 1 -1-1v-4a1 1 0 0 1 1-1h1.466a9.941 9.941 0 0 1 .672-1.619l-1.038-1.038a1 1 0 0 1 0-1.414l2.829-2.829a1 1 0 0 1 1.414 0l1.038 1.037a9.941 9.941 0 0 1 1.619-.671v-1.466a1 1 0 0 1 1-1h4a1 1 0 0 1 1 1v1.466a9.941 9.941 0 0 1 1.619.672l1.038-1.038a1 1 0 0 1 1.414 0l2.829 2.829a1 1 0 0 1 0 1.414l-1.037 1.038a9.941 9.941 0 0 1 .671 1.619h1.466a1 1 0 0 1 1 1v4a1 1 0 0 1 -1 1h-1.466a9.941 9.941 0 0 1 -.672 1.619l1.038 1.038a1 1 0 0 1 0 1.414l-2.829 2.829a1 1 0 0 1 -1.414 0l-1.038-1.037a9.941 9.941 0 0 1 -1.619.671v1.466a1 1 0 0 1 -1 1zm-3-2h2v-1.23a1 1 0 0 1 .778-.976 7.917 7.917 0 0 0 2.473-1.027 1 1 0 0 1 1.241.139l.872.872 1.414-1.414-.872-.872a1 1 0 0 1 -.139-1.241 7.917 7.917 0 0 0 1.027-2.473 1 1 0 0 1 .976-.778h1.23v-2h-1.23a1 1 0 0 1 -.976-.778 7.917 7.917 0 0 0 -1.027-2.473 1 1 0 0 1 .139-1.241l.872-.872-1.414-1.414-.872.872a1 1 0 0 1 -1.241.139 7.917 7.917 0 0 0 -2.473-1.027 1 1 0 0 1 -.778-.976v-1.23h-2v1.23a1 1 0 0 1 -.778.976 7.917 7.917 0 0 0 -2.473 1.027 1 1 0 0 1 -1.241-.139l-.872-.872-1.414 1.414.872.872a1 1 0 0 1 .139 1.241 7.917 7.917 0 0 0 -1.027 2.473 1 1 0 0 1 -.976.778h-1.23v2h1.23a1 1 0 0 1 .976.778 7.917 7.917 0 0 0 1.027 2.473 1 1 0 0 1 -.139 1.241l-.872.872 1.414 1.414.872-.872a1 1 0 0 1 1.241-.139 7.917 7.917 0 0 0 2.473 1.027 1 1 0 0 1 .778.976z" fill="#35477d" data-original="#000000" class=""></path><path d="m16 21a5 5 0 1 1 5-5 5.006 5.006 0 0 1 -5 5zm0-8a3 3 0 1 0 3 3 3 3 0 0 0 -3-3z" fill="#35477d" data-original="#000000" class=""></path><path d="m17 41h-2v-4a1 1 0 0 1 1-1h1.466a9.941 9.941 0 0 1 .672-1.619l-1.038-1.038a1 1 0 0 1 0-1.414l2.829-2.829a1 1 0 0 1 1.414 0l1.038 1.037a9.941 9.941 0 0 1 1.619-.671v-1.466a1 1 0 0 1 1-1h4v2h-3v1.23a1 1 0 0 1 -.778.976 7.917 7.917 0 0 0 -2.473 1.027 1 1 0 0 1 -1.241-.139l-.872-.872-1.414 1.414.872.872a1 1 0 0 1 .139 1.241 7.917 7.917 0 0 0 -1.027 2.473 1 1 0 0 1 -.976.778h-1.23z" fill="#35477d" data-original="#000000" class=""></path><path d="m24 39h-2a5.006 5.006 0 0 1 5-5v2a3 3 0 0 0 -3 3z" fill="#35477d" data-original="#000000" class=""></path><path d="m45 50a11 11 0 1 1 11-11 11.013 11.013 0 0 1 -11 11zm0-20a9 9 0 1 0 9 9 9.011 9.011 0 0 0 -9-9z" fill="#35477d" data-original="#000000" class=""></path><path d="m43 46a1 1 0 0 1 -.707-.293l-5-5a1 1 0 0 1 0-1.414l3-3a1 1 0 0 1 1.414 0l1.293 1.293 5.293-5.293a1 1 0 0 1 1.414 0l3 3a1 1 0 0 1 0 1.414l-9 9a1 1 0 0 1 -.707.293zm-3.586-6 3.586 3.586 7.586-7.586-1.586-1.586-5.293 5.293a1 1 0 0 1 -1.414 0l-1.293-1.293z" fill="#35477d" data-original="#000000" class=""></path><path d="m57 4h2v2h-2z" fill="#35477d" data-original="#000000" class=""></path><path d="m42 4h13v2h-13z" fill="#35477d" data-original="#000000" class=""></path></g></svg>